<?xml version="1.0" encoding="UTF-8" standalone="no"?>
<!DOCTYPE svg PUBLIC "-//W3C//DTD SVG 1.1//EN"
 "http://www.w3.org/Graphics/SVG/1.1/DTD/svg11.dtd">
<!-- Generated by graphviz version 2.38.0 (20140413.2041)
 -->
<!-- Title: %3 Pages: 1 -->
<svg width="418pt" height="204pt"
 viewBox="0.00 0.00 418.00 204.07" xmlns="http://www.w3.org/2000/svg" xmlns:xlink="http://www.w3.org/1999/xlink">
<g id="graph0" class="graph" transform="scale(1 1) rotate(0) translate(4 200.066)">
<title>%3</title>
<polygon fill="white" stroke="none" points="-4,4 -4,-200.066 414,-200.066 414,4 -4,4"/>
<!-- TOTAL_HOLES -->
<g id="node1" class="node"><title>TOTAL_HOLES</title>
<polygon fill="lightgray" stroke="black" points="80,-196.066 0,-196.066 0,-178.066 80,-178.066 80,-196.066"/>
<text text-anchor="middle" x="40" y="-184.866" font-family="Times New Roman,serif" font-size="9.00">TOTAL_HOLES</text>
</g>
<!-- SCORE -->
<g id="node5" class="node"><title>SCORE</title>
<ellipse fill="lightblue" stroke="black" cx="48" cy="-110.246" rx="31.6406" ry="31.6406"/>
<text text-anchor="middle" x="48" y="-108.046" font-family="Times New Roman,serif" font-size="9.00">SCORE</text>
</g>
<!-- TOTAL_HOLES&#45;&gt;SCORE -->
<g id="edge1" class="edge"><title>TOTAL_HOLES&#45;&gt;SCORE</title>
<path fill="none" stroke="red" stroke-width="0.251938" d="M40.8561,-178.059C41.5382,-171.68 42.5498,-162.219 43.5986,-152.411"/>
<polygon fill="red" stroke="red" stroke-width="0.251938" points="47.1096,-152.493 44.6927,-142.178 40.1493,-151.749 47.1096,-152.493"/>
</g>
<!-- COMPLETE_LINES -->
<g id="node2" class="node"><title>COMPLETE_LINES</title>
<polygon fill="lightgray" stroke="black" points="279.5,-196.066 184.5,-196.066 184.5,-178.066 279.5,-178.066 279.5,-196.066"/>
<text text-anchor="middle" x="232" y="-184.866" font-family="Times New Roman,serif" font-size="9.00">COMPLETE_LINES</text>
</g>
<!-- AGGREGATE_HEIGHT -->
<g id="node3" class="node"><title>AGGREGATE_HEIGHT</title>
<polygon fill="lightgray" stroke="black" points="410,-196.066 298,-196.066 298,-178.066 410,-178.066 410,-196.066"/>
<text text-anchor="middle" x="354" y="-184.866" font-family="Times New Roman,serif" font-size="9.00">AGGREGATE_HEIGHT</text>
</g>
<!-- BUMPINESS -->
<g id="node4" class="node"><title>BUMPINESS</title>
<polygon fill="lightgray" stroke="black" points="166,-196.066 98,-196.066 98,-178.066 166,-178.066 166,-196.066"/>
<text text-anchor="middle" x="132" y="-184.866" font-family="Times New Roman,serif" font-size="9.00">BUMPINESS</text>
</g>
<!-- BUMPINESS&#45;&gt;SCORE -->
<g id="edge2" class="edge"><title>BUMPINESS&#45;&gt;SCORE</title>
<path fill="none" stroke="red" stroke-width="0.122915" d="M123.011,-178.059C112.535,-168.729 94.6596,-152.806 78.9858,-138.846"/>
<polygon fill="red" stroke="red" stroke-width="0.122915" points="81.3057,-136.225 71.5104,-132.187 76.6498,-141.452 81.3057,-136.225"/>
</g>
<!-- 426 -->
<g id="node6" class="node"><title>426</title>
<ellipse fill="white" stroke="black" cx="148" cy="-21.2132" rx="21.4286" ry="21.4286"/>
<text text-anchor="middle" x="148" y="-19.0132" font-family="Times New Roman,serif" font-size="9.00">426</text>
</g>
<!-- BUMPINESS&#45;&gt;426 -->
<g id="edge3" class="edge"><title>BUMPINESS&#45;&gt;426</title>
<path fill="none" stroke="green" stroke-width="0.43939" stroke-dasharray="1,5" d="M132.815,-177.715C135.039,-154.944 141.292,-90.909 145.044,-52.4827"/>
<polygon fill="green" stroke="green" stroke-width="0.43939" points="148.542,-52.672 146.031,-42.3792 141.575,-51.9917 148.542,-52.672"/>
</g>
<!-- 446 -->
<g id="node7" class="node"><title>446</title>
<ellipse fill="white" stroke="black" cx="173" cy="-110.246" rx="21.4286" ry="21.4286"/>
<text text-anchor="middle" x="173" y="-108.046" font-family="Times New Roman,serif" font-size="9.00">446</text>
</g>
<!-- BUMPINESS&#45;&gt;446 -->
<g id="edge4" class="edge"><title>BUMPINESS&#45;&gt;446</title>
<path fill="none" stroke="green" stroke-width="0.361236" d="M136.388,-178.059C141.607,-168.534 150.591,-152.14 158.353,-137.976"/>
<polygon fill="green" stroke="green" stroke-width="0.361236" points="161.489,-139.536 163.225,-129.084 155.35,-136.172 161.489,-139.536"/>
</g>
<!-- 446&#45;&gt;426 -->
<g id="edge5" class="edge"><title>446&#45;&gt;426</title>
<path fill="none" stroke="green" stroke-width="0.298185" d="M167.327,-89.4971C164.131,-78.3694 160.075,-64.2507 156.505,-51.823"/>
<polygon fill="green" stroke="green" stroke-width="0.298185" points="159.775,-50.5292 153.65,-41.8842 153.047,-52.4618 159.775,-50.5292"/>
</g>
</g>
</svg>
