<?xml version="1.0" encoding="UTF-8" standalone="no"?>
<!DOCTYPE svg PUBLIC "-//W3C//DTD SVG 1.1//EN"
 "http://www.w3.org/Graphics/SVG/1.1/DTD/svg11.dtd">
<!-- Generated by graphviz version 2.38.0 (20140413.2041)
 -->
<!-- Title: %3 Pages: 1 -->
<svg width="418pt" height="126pt"
 viewBox="0.00 0.00 418.00 125.64" xmlns="http://www.w3.org/2000/svg" xmlns:xlink="http://www.w3.org/1999/xlink">
<g id="graph0" class="graph" transform="scale(1 1) rotate(0) translate(4 121.64)">
<title>%3</title>
<polygon fill="white" stroke="none" points="-4,4 -4,-121.64 414,-121.64 414,4 -4,4"/>
<!-- TOTAL_HOLES -->
<g id="node1" class="node"><title>TOTAL_HOLES</title>
<polygon fill="lightgray" stroke="black" points="80,-117.64 0,-117.64 0,-99.6396 80,-99.6396 80,-117.64"/>
<text text-anchor="middle" x="40" y="-106.44" font-family="Times New Roman,serif" font-size="9.00">TOTAL_HOLES</text>
</g>
<!-- SCORE -->
<g id="node5" class="node"><title>SCORE</title>
<ellipse fill="lightblue" stroke="black" cx="207" cy="-31.8198" rx="31.6406" ry="31.6406"/>
<text text-anchor="middle" x="207" y="-29.6198" font-family="Times New Roman,serif" font-size="9.00">SCORE</text>
</g>
<!-- TOTAL_HOLES&#45;&gt;SCORE -->
<g id="edge1" class="edge"><title>TOTAL_HOLES&#45;&gt;SCORE</title>
<path fill="none" stroke="red" stroke-width="0.487701" d="M57.8719,-99.6326C84.176,-87.8478 133.953,-65.5466 168.733,-49.9642"/>
<polygon fill="red" stroke="red" stroke-width="0.487701" points="170.418,-53.0445 178.113,-45.7617 167.556,-46.6563 170.418,-53.0445"/>
</g>
<!-- COMPLETE_LINES -->
<g id="node2" class="node"><title>COMPLETE_LINES</title>
<polygon fill="lightgray" stroke="black" points="193.5,-117.64 98.5,-117.64 98.5,-99.6396 193.5,-99.6396 193.5,-117.64"/>
<text text-anchor="middle" x="146" y="-106.44" font-family="Times New Roman,serif" font-size="9.00">COMPLETE_LINES</text>
</g>
<!-- COMPLETE_LINES&#45;&gt;SCORE -->
<g id="edge2" class="edge"><title>COMPLETE_LINES&#45;&gt;SCORE</title>
<path fill="none" stroke="green" stroke-width="0.492414" d="M152.528,-99.6326C159.349,-91.2659 170.492,-77.5987 180.928,-64.7983"/>
<polygon fill="green" stroke="green" stroke-width="0.492414" points="183.684,-66.9576 187.29,-56.9954 178.258,-62.5343 183.684,-66.9576"/>
</g>
<!-- AGGREGATE_HEIGHT -->
<g id="node3" class="node"><title>AGGREGATE_HEIGHT</title>
<polygon fill="lightgray" stroke="black" points="324,-117.64 212,-117.64 212,-99.6396 324,-99.6396 324,-117.64"/>
<text text-anchor="middle" x="268" y="-106.44" font-family="Times New Roman,serif" font-size="9.00">AGGREGATE_HEIGHT</text>
</g>
<!-- AGGREGATE_HEIGHT&#45;&gt;SCORE -->
<g id="edge3" class="edge"><title>AGGREGATE_HEIGHT&#45;&gt;SCORE</title>
<path fill="none" stroke="green" stroke-width="0.23887" d="M261.472,-99.6326C254.651,-91.2659 243.508,-77.5987 233.072,-64.7983"/>
<polygon fill="green" stroke="green" stroke-width="0.23887" points="235.742,-62.5343 226.71,-56.9954 230.316,-66.9576 235.742,-62.5343"/>
</g>
<!-- BUMPINESS -->
<g id="node4" class="node"><title>BUMPINESS</title>
<polygon fill="lightgray" stroke="black" points="410,-117.64 342,-117.64 342,-99.6396 410,-99.6396 410,-117.64"/>
<text text-anchor="middle" x="376" y="-106.44" font-family="Times New Roman,serif" font-size="9.00">BUMPINESS</text>
</g>
<!-- BUMPINESS&#45;&gt;SCORE -->
<g id="edge4" class="edge"><title>BUMPINESS&#45;&gt;SCORE</title>
<path fill="none" stroke="red" stroke-width="0.202696" d="M357.914,-99.6326C331.217,-87.8133 280.627,-65.4161 245.417,-49.8277"/>
<polygon fill="red" stroke="red" stroke-width="0.202696" points="246.487,-46.4739 235.926,-45.626 243.653,-52.8746 246.487,-46.4739"/>
</g>
</g>
</svg>
