<?xml version="1.0" encoding="UTF-8" standalone="no"?>
<!DOCTYPE svg PUBLIC "-//W3C//DTD SVG 1.1//EN"
 "http://www.w3.org/Graphics/SVG/1.1/DTD/svg11.dtd">
<!-- Generated by graphviz version 2.38.0 (20140413.2041)
 -->
<!-- Title: %3 Pages: 1 -->
<svg width="418pt" height="126pt"
 viewBox="0.00 0.00 418.00 125.64" xmlns="http://www.w3.org/2000/svg" xmlns:xlink="http://www.w3.org/1999/xlink">
<g id="graph0" class="graph" transform="scale(1 1) rotate(0) translate(4 121.64)">
<title>%3</title>
<polygon fill="white" stroke="none" points="-4,4 -4,-121.64 414,-121.64 414,4 -4,4"/>
<!-- TOTAL_HOLES -->
<g id="node1" class="node"><title>TOTAL_HOLES</title>
<polygon fill="lightgray" stroke="black" points="80,-117.64 0,-117.64 0,-99.6396 80,-99.6396 80,-117.64"/>
<text text-anchor="middle" x="40" y="-106.44" font-family="Times New Roman,serif" font-size="9.00">TOTAL_HOLES</text>
</g>
<!-- SCORE -->
<g id="node5" class="node"><title>SCORE</title>
<ellipse fill="lightblue" stroke="black" cx="86" cy="-31.8198" rx="31.6406" ry="31.6406"/>
<text text-anchor="middle" x="86" y="-29.6198" font-family="Times New Roman,serif" font-size="9.00">SCORE</text>
</g>
<!-- TOTAL_HOLES&#45;&gt;SCORE -->
<g id="edge1" class="edge"><title>TOTAL_HOLES&#45;&gt;SCORE</title>
<path fill="none" stroke="red" stroke-width="0.280136" d="M44.9228,-99.6326C49.66,-91.9274 57.1611,-79.7267 64.4645,-67.8476"/>
<polygon fill="red" stroke="red" stroke-width="0.280136" points="67.4493,-69.6754 69.7052,-59.3235 61.4862,-66.0092 67.4493,-69.6754"/>
</g>
<!-- COMPLETE_LINES -->
<g id="node2" class="node"><title>COMPLETE_LINES</title>
<polygon fill="lightgray" stroke="black" points="279.5,-117.64 184.5,-117.64 184.5,-99.6396 279.5,-99.6396 279.5,-117.64"/>
<text text-anchor="middle" x="232" y="-106.44" font-family="Times New Roman,serif" font-size="9.00">COMPLETE_LINES</text>
</g>
<!-- AGGREGATE_HEIGHT -->
<g id="node3" class="node"><title>AGGREGATE_HEIGHT</title>
<polygon fill="lightgray" stroke="black" points="410,-117.64 298,-117.64 298,-99.6396 410,-99.6396 410,-117.64"/>
<text text-anchor="middle" x="354" y="-106.44" font-family="Times New Roman,serif" font-size="9.00">AGGREGATE_HEIGHT</text>
</g>
<!-- BUMPINESS -->
<g id="node4" class="node"><title>BUMPINESS</title>
<polygon fill="lightgray" stroke="black" points="166,-117.64 98,-117.64 98,-99.6396 166,-99.6396 166,-117.64"/>
<text text-anchor="middle" x="132" y="-106.44" font-family="Times New Roman,serif" font-size="9.00">BUMPINESS</text>
</g>
<!-- BUMPINESS&#45;&gt;SCORE -->
<g id="edge2" class="edge"><title>BUMPINESS&#45;&gt;SCORE</title>
<path fill="none" stroke="red" stroke-width="0.122738" d="M127.077,-99.6326C122.34,-91.9274 114.839,-79.7267 107.535,-67.8476"/>
<polygon fill="red" stroke="red" stroke-width="0.122738" points="110.514,-66.0092 102.295,-59.3235 104.551,-69.6754 110.514,-66.0092"/>
</g>
</g>
</svg>
